<svg xmlns="http://www.w3.org/2000/svg" width='87.645' height='87.645' viewBox="0 0 64 64"><g id="Layer_88" data-name="Layer 88"><path d="M32,2.5c-10.89,0-19.75,9.35-19.75,20.85,0,11,17.77,36.44,18.52,37.51a1.51,1.51,0,0,0,2.46,0C34,59.79,51.75,34.39,51.75,23.35,51.75,11.85,42.89,2.5,32,2.5Zm0,54.85c-4.05-6-16.75-25.47-16.75-34C15.25,13.51,22.76,5.5,32,5.5s16.75,8,16.75,17.85C48.75,31.88,36.05,51.35,32,57.35Z" id="id_101" style="fill: rgb(255, 255, 255);"></path><path d="M32,11.13A12.24,12.24,0,0,0,19.77,23.35c.68,16.22,23.79,16.22,24.46,0A12.24,12.24,0,0,0,32,11.13Zm0,21.45a9.24,9.24,0,0,1-9.23-9.23c.5-12.23,18-12.23,18.46,0A9.24,9.24,0,0,1,32,32.58Z" id="id_102" style="fill: rgb(255, 255, 255);"></path></g></svg>